<?xml version="1.0" encoding="UTF-8" standalone="no"?>
<!-- Created with Inkscape (http://www.inkscape.org/) -->

<svg
   width="29.937151mm"
   height="29.937151mm"
   viewBox="0 0 29.937151 29.937151"
   version="1.1"
   id="svg1"
   inkscape:version="1.4.2 (ebf0e940d0, 2025-05-08)"
   sodipodi:docname="logo.svg"
   xmlns:inkscape="http://www.inkscape.org/namespaces/inkscape"
   xmlns:sodipodi="http://sodipodi.sourceforge.net/DTD/sodipodi-0.dtd"
   xmlns="http://www.w3.org/2000/svg"
   xmlns:svg="http://www.w3.org/2000/svg">
  <sodipodi:namedview
     id="namedview1"
     pagecolor="#ffffff"
     bordercolor="#111111"
     borderopacity="1"
     inkscape:showpageshadow="0"
     inkscape:pageopacity="0"
     inkscape:pagecheckerboard="1"
     inkscape:deskcolor="#d1d1d1"
     inkscape:document-units="mm"
     inkscape:zoom="1.9406626"
     inkscape:cx="61.319264"
     inkscape:cy="156.13224"
     inkscape:window-width="1920"
     inkscape:window-height="1131"
     inkscape:window-x="0"
     inkscape:window-y="0"
     inkscape:window-maximized="1"
     inkscape:current-layer="layer1" />
  <defs
     id="defs1">
    <rect
       x="233.0294"
       y="183.29752"
       width="36.3901"
       height="31.062892"
       id="rect1" />
  </defs>
  <g
     inkscape:label="Layer 1"
     inkscape:groupmode="layer"
     id="layer1"
     transform="translate(-57.589644,-35.032687)">
    <circle
       style="fill:#ffffff;stroke:#16161a;stroke-width:1.365;stroke-dasharray:none;stroke-opacity:1"
       id="path1"
       cx="72.55822"
       cy="50.001263"
       r="14.286076" />
    <g
       id="text1"
       style="font-size:12.3317px;white-space:pre;stroke:#16161a;stroke-width:1.0021"
       transform="matrix(0.58130739,0,0,0.56313334,-73.647126,-61.335584)"
       aria-label="OPEN&#10;SOHO">
      <path
         style="font-family:'Adwaita Mono';-inkscape-font-specification:'Adwaita Mono';text-align:center;text-anchor:middle"
         d="m 240.12607,194.61584 q -0.35762,0 -0.71524,-0.0617 -0.35762,-0.0617 -0.67824,-0.20964 -0.32063,-0.14798 -0.59192,-0.39462 -0.25897,-0.25896 -0.43161,-0.56725 -0.16032,-0.32063 -0.23431,-0.67825 -0.0617,-0.35762 -0.0617,-0.71524 v -4.0078 q 0,-0.35762 0.0617,-0.71524 0.074,-0.35762 0.23431,-0.66591 0.17264,-0.32062 0.43161,-0.56726 0.27129,-0.25896 0.59192,-0.40694 0.32062,-0.14798 0.67824,-0.20964 0.35762,-0.0617 0.71524,-0.0617 0.35762,0 0.71524,0.0617 0.35762,0.0617 0.67824,0.20964 0.32063,0.14798 0.57959,0.40694 0.2713,0.24664 0.43161,0.56726 0.17265,0.30829 0.2343,0.66591 0.074,0.35762 0.074,0.71524 v 4.0078 q 0,0.35762 -0.074,0.71524 -0.0617,0.35762 -0.2343,0.67825 -0.16031,0.30829 -0.43161,0.56725 -0.25896,0.24664 -0.57959,0.39462 -0.32062,0.14798 -0.67824,0.20964 -0.35762,0.0617 -0.71524,0.0617 z m 0,-0.91255 q 0.2343,0 0.45627,-0.037 0.22197,-0.037 0.41928,-0.13565 0.20964,-0.11099 0.36995,-0.2713 0.17265,-0.17264 0.2713,-0.36995 0.0987,-0.20964 0.13565,-0.43161 0.037,-0.2343 0.037,-0.46861 v -4.0078 q 0,-0.2343 -0.037,-0.45627 -0.037,-0.2343 -0.13565,-0.43161 -0.0986,-0.20964 -0.2713,-0.36995 -0.16031,-0.17265 -0.36995,-0.2713 -0.19731,-0.11098 -0.41928,-0.14798 -0.22197,-0.037 -0.45627,-0.037 -0.2343,0 -0.45627,0.037 -0.22197,0.037 -0.43161,0.14798 -0.19731,0.0987 -0.36995,0.2713 -0.16032,0.16031 -0.25897,0.36995 -0.0987,0.19731 -0.13565,0.43161 -0.037,0.22197 -0.037,0.45627 v 4.0078 q 0,0.23431 0.037,0.46861 0.037,0.22197 0.13565,0.43161 0.0986,0.19731 0.25897,0.36995 0.17264,0.16031 0.36995,0.2713 0.20964,0.0986 0.43161,0.13565 0.22197,0.037 0.45627,0.037 z m 5.056,0.81389 v -9.0638 h 2.57733 q 0.35762,0 0.7029,0.074 0.34529,0.0617 0.65358,0.22197 0.32063,0.16032 0.55493,0.43161 0.24663,0.25897 0.39461,0.57959 0.16032,0.3083 0.20964,0.66592 0.0617,0.34528 0.0617,0.7029 0,0.34529 -0.0617,0.70291 -0.0493,0.34529 -0.20964,0.66591 -0.14798,0.32063 -0.39461,0.57959 -0.2343,0.25897 -0.55493,0.43161 -0.30829,0.16031 -0.65358,0.22197 -0.34528,0.0617 -0.7029,0.0617 h -1.5538 v 3.72417 z m 2.57733,-4.62438 q 0.22197,0 0.44394,-0.0493 0.22197,-0.0493 0.40694,-0.16031 0.19731,-0.12332 0.33296,-0.29596 0.14798,-0.18498 0.22197,-0.38229 0.0863,-0.20964 0.11099,-0.43161 0.037,-0.22197 0.037,-0.44394 0,-0.22197 -0.037,-0.44394 -0.0247,-0.2343 -0.11099,-0.43161 -0.074,-0.20964 -0.22197,-0.38228 -0.13565,-0.18498 -0.33296,-0.29596 -0.18497,-0.12332 -0.40694,-0.17265 -0.22197,-0.0493 -0.44394,-0.0493 h -1.5538 v 3.5392 z m 4.64905,4.62438 v -9.0638 h 5.12999 v 0.90022 h -4.10646 v 2.9966 h 3.31723 v 0.91255 h -3.31723 v 3.34189 h 4.10646 v 0.91254 z m 7.30037,0 v -9.0638 h 1.25784 l 3.07059,7.60866 q -0.0247,-0.98653 -0.074,-1.9854 -0.0493,-0.99887 -0.0493,-1.99774 v -3.62552 h 1.02354 v 9.0638 h -1.25784 l -3.07059,-7.60866 q 0.0247,0.98654 0.074,1.98541 0.0493,0.99887 0.0493,1.99773 v 3.62552 z"
         id="path9" />
      <path
         style="font-family:'Adwaita Mono';-inkscape-font-specification:'Adwaita Mono'"
         d="m 240.11374,210.18923 q -0.33296,0 -0.66591,-0.0493 -0.32063,-0.037 -0.64125,-0.14798 -0.30829,-0.12331 -0.57959,-0.32062 -0.2713,-0.19731 -0.45628,-0.4686 -0.18497,-0.2713 -0.28362,-0.59193 -0.0987,-0.32062 -0.0987,-0.65358 v -0.0863 h 1.02353 v 0.0493 q 0,0.30829 0.13565,0.59192 0.14798,0.28363 0.39462,0.4686 0.25896,0.17265 0.55492,0.23431 0.3083,0.0617 0.61659,0.0617 0.30829,0 0.61658,-0.0617 0.32063,-0.074 0.56726,-0.25897 0.24664,-0.19731 0.38228,-0.48093 0.14798,-0.29597 0.14798,-0.61659 0,-0.33296 -0.17264,-0.64125 -0.16031,-0.30829 -0.41928,-0.51793 -0.25896,-0.22197 -0.56726,-0.35762 -0.30829,-0.14798 -0.62891,-0.2713 -0.30829,-0.13565 -0.61659,-0.27129 -0.29596,-0.14798 -0.57959,-0.33296 -0.28363,-0.18498 -0.53026,-0.41928 -0.24663,-0.2343 -0.43161,-0.51793 -0.17264,-0.28363 -0.2713,-0.61658 -0.0986,-0.33296 -0.0986,-0.66592 0,-0.33295 0.0863,-0.65358 0.0863,-0.32062 0.25897,-0.59192 0.17264,-0.28363 0.43161,-0.49327 0.25896,-0.22197 0.55492,-0.34528 0.3083,-0.13565 0.62892,-0.18498 0.33296,-0.0493 0.66591,-0.0493 0.32063,0 0.64125,0.0493 0.33296,0.037 0.62892,0.16031 0.30829,0.12332 0.56725,0.33296 0.25897,0.19731 0.43161,0.4686 0.18498,0.2713 0.2713,0.59193 0.0863,0.30829 0.0863,0.62891 v 0.0863 h -1.02353 v -0.0493 q 0,-0.29596 -0.12331,-0.56726 -0.12332,-0.28363 -0.35762,-0.46861 -0.23431,-0.18497 -0.53027,-0.24663 -0.29596,-0.074 -0.59192,-0.074 -0.29596,0 -0.60425,0.074 -0.29596,0.074 -0.53027,0.2713 -0.2343,0.18497 -0.35761,0.48093 -0.12332,0.28363 -0.12332,0.57959 0,0.34529 0.16031,0.65358 0.17264,0.3083 0.41928,0.53027 0.25896,0.20964 0.56726,0.35762 0.32062,0.13565 0.62891,0.27129 0.3083,0.12332 0.61659,0.2713 0.30829,0.13565 0.59192,0.32063 0.28363,0.18497 0.53026,0.41927 0.24664,0.23431 0.41928,0.51793 0.18498,0.28363 0.28363,0.61659 0.0987,0.32062 0.0987,0.65358 0,0.34529 -0.0987,0.67824 -0.0863,0.32063 -0.2713,0.60426 -0.18497,0.28363 -0.45627,0.49326 -0.2713,0.20964 -0.57959,0.33296 -0.30829,0.12332 -0.65358,0.17264 -0.33296,0.0493 -0.66591,0.0493 z m 7.41135,0 q -0.35761,0 -0.71523,-0.0617 -0.35762,-0.0617 -0.67825,-0.20964 -0.32062,-0.14798 -0.59192,-0.39461 -0.25896,-0.25897 -0.43161,-0.56726 -0.16031,-0.32062 -0.2343,-0.67824 -0.0617,-0.35762 -0.0617,-0.71524 v -4.0078 q 0,-0.35762 0.0617,-0.71524 0.074,-0.35762 0.2343,-0.66591 0.17265,-0.32063 0.43161,-0.56726 0.2713,-0.25897 0.59192,-0.40695 0.32063,-0.14798 0.67825,-0.20964 0.35762,-0.0617 0.71523,-0.0617 0.35762,0 0.71524,0.0617 0.35762,0.0617 0.67825,0.20964 0.32062,0.14798 0.57959,0.40695 0.27129,0.24663 0.43161,0.56726 0.17264,0.30829 0.2343,0.66591 0.074,0.35762 0.074,0.71524 v 4.0078 q 0,0.35762 -0.074,0.71524 -0.0617,0.35762 -0.2343,0.67824 -0.16032,0.30829 -0.43161,0.56726 -0.25897,0.24663 -0.57959,0.39461 -0.32063,0.14798 -0.67825,0.20964 -0.35762,0.0617 -0.71524,0.0617 z m 0,-0.91254 q 0.23431,0 0.45628,-0.037 0.22197,-0.037 0.41928,-0.13565 0.20963,-0.11098 0.36995,-0.2713 0.17264,-0.17264 0.27129,-0.36995 0.0987,-0.20964 0.13565,-0.43161 0.037,-0.2343 0.037,-0.4686 v -4.0078 q 0,-0.23431 -0.037,-0.45628 -0.037,-0.2343 -0.13565,-0.43161 -0.0986,-0.20963 -0.27129,-0.36995 -0.16032,-0.17264 -0.36995,-0.27129 -0.19731,-0.11099 -0.41928,-0.14798 -0.22197,-0.037 -0.45628,-0.037 -0.2343,0 -0.45627,0.037 -0.22197,0.037 -0.43161,0.14798 -0.1973,0.0986 -0.36995,0.27129 -0.16031,0.16032 -0.25896,0.36995 -0.0987,0.19731 -0.13565,0.43161 -0.037,0.22197 -0.037,0.45628 v 4.0078 q 0,0.2343 0.037,0.4686 0.037,0.22197 0.13565,0.43161 0.0987,0.19731 0.25896,0.36995 0.17265,0.16032 0.36995,0.2713 0.20964,0.0987 0.43161,0.13565 0.22197,0.037 0.45627,0.037 z m 4.78471,0.81389 v -9.0638 h 1.02353 v 3.93381 h 3.18158 v -3.93381 h 1.02353 v 9.0638 h -1.02353 v -4.22978 h -3.18158 v 4.22978 z m 10.01334,0.0987 q -0.35761,0 -0.71523,-0.0617 -0.35762,-0.0617 -0.67825,-0.20964 -0.32062,-0.14798 -0.59192,-0.39461 -0.25896,-0.25897 -0.43161,-0.56726 -0.16031,-0.32062 -0.2343,-0.67824 -0.0617,-0.35762 -0.0617,-0.71524 v -4.0078 q 0,-0.35762 0.0617,-0.71524 0.074,-0.35762 0.2343,-0.66591 0.17265,-0.32063 0.43161,-0.56726 0.2713,-0.25897 0.59192,-0.40695 0.32063,-0.14798 0.67825,-0.20964 0.35762,-0.0617 0.71523,-0.0617 0.35762,0 0.71524,0.0617 0.35762,0.0617 0.67825,0.20964 0.32062,0.14798 0.57959,0.40695 0.27129,0.24663 0.43161,0.56726 0.17264,0.30829 0.2343,0.66591 0.074,0.35762 0.074,0.71524 v 4.0078 q 0,0.35762 -0.074,0.71524 -0.0617,0.35762 -0.2343,0.67824 -0.16032,0.30829 -0.43161,0.56726 -0.25897,0.24663 -0.57959,0.39461 -0.32063,0.14798 -0.67825,0.20964 -0.35762,0.0617 -0.71524,0.0617 z m 0,-0.91254 q 0.23431,0 0.45628,-0.037 0.22197,-0.037 0.41928,-0.13565 0.20963,-0.11098 0.36995,-0.2713 0.17264,-0.17264 0.27129,-0.36995 0.0987,-0.20964 0.13565,-0.43161 0.037,-0.2343 0.037,-0.4686 v -4.0078 q 0,-0.23431 -0.037,-0.45628 -0.037,-0.2343 -0.13565,-0.43161 -0.0987,-0.20963 -0.27129,-0.36995 -0.16032,-0.17264 -0.36995,-0.27129 -0.19731,-0.11099 -0.41928,-0.14798 -0.22197,-0.037 -0.45628,-0.037 -0.2343,0 -0.45627,0.037 -0.22197,0.037 -0.43161,0.14798 -0.19731,0.0986 -0.36995,0.27129 -0.16031,0.16032 -0.25896,0.36995 -0.0987,0.19731 -0.13565,0.43161 -0.037,0.22197 -0.037,0.45628 v 4.0078 q 0,0.2343 0.037,0.4686 0.037,0.22197 0.13565,0.43161 0.0986,0.19731 0.25896,0.36995 0.17264,0.16032 0.36995,0.2713 0.20964,0.0987 0.43161,0.13565 0.22197,0.037 0.45627,0.037 z"
         id="path10" />
    </g>
  </g>
</svg>
